# xmcd CD database file
#
# Track frame offsets:
#	150
#	24223
#	56767
#	90829
#	135328
#
# Disc length: 1951 seconds
#
# Revision: 0
# Processed by: cddbd v1.5.2PL0 Copyright (c) Steve Scherf et al.
# Submitted via: CDex 1.70beta2
#
DISCID=2d079d05
DTITLE=Eple Trio - In The Clearing/In The Cavern [CD1]
DYEAR=2010
DGENRE=Jazz
TTITLE0=Preludium
TTITLE1=Greatest Joy On Earth
TTITLE2=Circle Song
TTITLE3=River Song II
TTITLE4=In The Clearing
EXTD=YEAR: 2010
EXTT0=
EXTT1=
EXTT2=
EXTT3=
EXTT4=
PLAYORDER=
